<?xml version="1.0" standalone="no"?>
<!DOCTYPE svg PUBLIC "-//W3C//DTD SVG 20010904//EN"
 "http://www.w3.org/TR/2001/REC-SVG-20010904/DTD/svg10.dtd">
<svg version="1.0" xmlns="http://www.w3.org/2000/svg"
 width="728.000000pt" height="512.000000pt" viewBox="0 0 728.000000 512.000000"
 preserveAspectRatio="xMidYMid meet">
<metadata>
Created by potrace 1.15, written by Peter Selinger 2001-2017
</metadata>
<g transform="translate(0.000000,512.000000) scale(0.100000,-0.100000)"
fill="gray" stroke="none">
<path d="M4692 3710 c-26 -11 -44 -52 -35 -77 3 -10 69 -110 146 -223 76 -113
150 -222 164 -243 14 -20 24 -39 22 -41 -4 -4 -400 -245 -569 -346 -52 -32
-185 -112 -295 -179 l-200 -120 -41 42 c-23 23 -199 212 -393 420 -318 341
-355 377 -383 377 -33 0 -3 29 -1461 -1420 -441 -438 -438 -435 -380 -480 18
-14 35 -19 51 -15 13 3 189 115 390 249 831 551 1178 779 1187 781 6 2 57 -49
115 -113 171 -188 710 -773 756 -819 26 -27 51 -43 66 -43 15 0 104 57 239
153 118 84 340 242 494 352 154 109 388 276 520 370 132 94 254 180 271 192
l31 22 110 -162 c61 -89 128 -188 149 -219 41 -61 75 -81 112 -67 31 12 37 30
77 244 20 105 44 233 55 285 103 519 151 781 145 800 -13 40 0 37 -405 114
-129 25 -387 75 -573 111 -186 36 -339 65 -340 64 -1 0 -12 -4 -25 -9z"/>
</g>
</svg>
